fd_11_states
version=1
nRows=35
nColumns=17
inDegrees=yes

# SIMM Motion File Header:
name fd_11_states
datacolumns 17
datarows 35
otherdata 1
range 0.886695 0.898029
endheader
time	/jointset/r_shoulder/r_shoulder_elev/value	/jointset/r_shoulder/r_shoulder_elev/speed	/jointset/r_elbow/r_elbow_flex/value	/jointset/r_elbow/r_elbow_flex/speed	/forceset/TRIlong/activation	/forceset/TRIlong/fiber_length	/forceset/TRIlat/activation	/forceset/TRIlat/fiber_length	/forceset/TRImed/activation	/forceset/TRImed/fiber_length	/forceset/BIClong/activation	/forceset/BIClong/fiber_length	/forceset/BICshort/activation	/forceset/BICshort/fiber_length	/forceset/BRA/activation	/forceset/BRA/fiber_length
      0.886695	     11.406567	    -26.131995	    303.126055	    458.627780	      0.055456	      0.151562	      0.086026	      0.078265	      0.082364	      0.073291	      0.040921	      0.136862	      0.021895	      0.139815	      0.021919	      0.075128
      0.887028	     11.397794	    -26.500591	    303.279055	    459.259872	      0.055645	      0.151495	      0.085964	      0.078204	      0.082296	      0.073229	      0.040824	      0.136929	      0.021887	      0.139877	      0.021911	      0.075190
      0.887362	     11.388897	    -26.871843	    303.432265	    459.901138	      0.055824	      0.151429	      0.085903	      0.078142	      0.082229	      0.073168	      0.040727	      0.136995	      0.021878	      0.139940	      0.021902	      0.075233
      0.887695	     11.379877	    -27.240191	    303.585689	    460.533953	      0.055992	      0.151362	      0.085842	      0.078080	      0.082162	      0.073106	      0.040630	      0.137062	      0.021870	      0.140002	      0.021894	      0.075294
      0.888028	     11.370735	    -27.611148	    303.739325	    461.175823	      0.056151	      0.151295	      0.085782	      0.078018	      0.082096	      0.073044	      0.040534	      0.137128	      0.021862	      0.140064	      0.021885	      0.075338
      0.888362	     11.361468	    -27.979166	    303.893174	    461.809181	      0.056302	      0.151228	      0.085722	      0.077956	      0.082030	      0.072982	      0.040438	      0.137195	      0.021854	      0.140126	      0.021877	      0.075399
      0.888695	     11.352079	    -28.349748	    304.047235	    462.451480	      0.056444	      0.151160	      0.085662	      0.077894	      0.081964	      0.072920	      0.040343	      0.137261	      0.021845	      0.140188	      0.021869	      0.075442
      0.889028	     11.342567	    -28.717359	    304.201509	    463.085217	      0.056578	      0.151093	      0.085602	      0.077832	      0.081898	      0.072858	      0.040248	      0.137327	      0.021837	      0.140249	      0.021860	      0.075503
      0.889362	     11.332931	    -29.087490	    304.355995	    463.727784	      0.056704	      0.151026	      0.085543	      0.077770	      0.081833	      0.072796	      0.040154	      0.137393	      0.021829	      0.140311	      0.021852	      0.075546
      0.889695	     11.323173	    -29.454623	    304.510695	    464.361749	      0.056824	      0.150958	      0.085484	      0.077707	      0.081769	      0.072734	      0.040060	      0.137459	      0.021821	      0.140372	      0.021844	      0.075608
      0.890029	     11.313292	    -29.824234	    304.665607	    465.004437	      0.056945	      0.150891	      0.085427	      0.077645	      0.081705	      0.072672	      0.039966	      0.137525	      0.021813	      0.140433	      0.021836	      0.075651
      0.890362	     11.303288	    -30.190836	    304.820732	    465.638521	      0.057379	      0.150823	      0.085416	      0.077583	      0.081679	      0.072610	      0.039873	      0.137591	      0.021805	      0.140494	      0.021828	      0.075712
      0.890695	     11.293162	    -30.559979	    304.976070	    466.281479	      0.057973	      0.150755	      0.085467	      0.077520	      0.081674	      0.072547	      0.039781	      0.137656	      0.021797	      0.140555	      0.021820	      0.075755
      0.891029	     11.282913	    -30.926307	    305.131621	    466.916341	      0.058534	      0.150686	      0.085514	      0.077457	      0.081669	      0.072485	      0.039689	      0.137722	      0.021789	      0.140616	      0.021812	      0.075816
      0.891362	     11.272542	    -31.295354	    305.287385	    467.560512	      0.059063	      0.150617	      0.085559	      0.077394	      0.081664	      0.072422	      0.039597	      0.137787	      0.021781	      0.140676	      0.021804	      0.075859
      0.891695	     11.262048	    -31.661731	    305.443363	    468.196978	      0.059562	      0.150548	      0.085602	      0.077332	      0.081660	      0.072360	      0.039506	      0.137852	      0.021773	      0.140737	      0.021796	      0.075920
      0.892029	     11.251431	    -32.030904	    305.599554	    468.842939	      0.060033	      0.150478	      0.085643	      0.077269	      0.081655	      0.072297	      0.039415	      0.137917	      0.021765	      0.140797	      0.021788	      0.075963
      0.892362	     11.240692	    -32.397472	    305.755960	    469.481390	      0.060478	      0.150409	      0.085682	      0.077205	      0.081650	      0.072234	      0.039325	      0.137982	      0.021757	      0.140857	      0.021780	      0.076024
      0.892696	     11.229830	    -32.766851	    305.912579	    470.129371	      0.060898	      0.150339	      0.085718	      0.077142	      0.081646	      0.072171	      0.039235	      0.138047	      0.021750	      0.140917	      0.021772	      0.076067
      0.893029	     11.218845	    -33.133646	    306.069414	    470.769923	      0.061294	      0.150269	      0.085753	      0.077079	      0.081641	      0.072108	      0.039146	      0.138112	      0.021742	      0.140977	      0.021764	      0.076128
      0.893362	     11.207738	    -33.503230	    306.226463	    471.419949	      0.061669	      0.150199	      0.085786	      0.077016	      0.081637	      0.072045	      0.039057	      0.138176	      0.021734	      0.141036	      0.021756	      0.076171
      0.893696	     11.196507	    -33.870183	    306.383729	    472.062434	      0.062022	      0.150129	      0.085817	      0.076952	      0.081632	      0.071982	      0.038968	      0.138241	      0.021727	      0.141096	      0.021748	      0.076231
      0.894029	     11.185154	    -34.239618	    306.541209	    472.713458	      0.062356	      0.150059	      0.085847	      0.076889	      0.081628	      0.071919	      0.038880	      0.138305	      0.021719	      0.141155	      0.021741	      0.076274
      0.894362	     11.173679	    -34.606093	    306.698906	    473.355957	      0.062672	      0.149988	      0.085875	      0.076825	      0.081623	      0.071856	      0.038793	      0.138369	      0.021711	      0.141214	      0.021733	      0.076335
      0.894696	     11.162081	    -34.975041	    306.856818	    474.006999	      0.062970	      0.149918	      0.085901	      0.076762	      0.081619	      0.071792	      0.038706	      0.138433	      0.021704	      0.141273	      0.021725	      0.076379
      0.895029	     11.150360	    -35.340913	    307.014946	    474.649207	      0.063252	      0.149848	      0.085927	      0.076698	      0.081614	      0.071729	      0.038619	      0.138497	      0.021696	      0.141332	      0.021718	      0.076440
      0.895362	     11.138517	    -35.709284	    307.173289	    475.300080	      0.063518	      0.149777	      0.085950	      0.076634	      0.081610	      0.071666	      0.038532	      0.138561	      0.021689	      0.141391	      0.021710	      0.076483
      0.895696	     11.126551	    -36.074447	    307.331848	    475.941763	      0.063769	      0.149707	      0.085973	      0.076570	      0.081605	      0.071602	      0.038446	      0.138625	      0.021681	      0.141449	      0.021702	      0.076545
      0.896029	     11.114464	    -36.442142	    307.490621	    476.592248	      0.064007	      0.149636	      0.085995	      0.076507	      0.081601	      0.071538	      0.038361	      0.138688	      0.021674	      0.141508	      0.021695	      0.076588
      0.896363	     11.102254	    -36.806492	    307.649611	    477.233172	      0.064231	      0.149565	      0.086015	      0.076443	      0.081597	      0.071475	      0.038276	      0.138752	      0.021666	      0.141566	      0.021687	      0.076650
      0.896696	     11.089923	    -37.173409	    307.808815	    477.883046	      0.064443	      0.149494	      0.086034	      0.076379	      0.081592	      0.071411	      0.038191	      0.138815	      0.021659	      0.141624	      0.021680	      0.076693
      0.897029	     11.077469	    -37.536844	    307.968235	    478.522983	      0.064644	      0.149423	      0.086053	      0.076315	      0.081588	      0.071348	      0.038107	      0.138878	      0.021652	      0.141682	      0.021672	      0.076756
      0.897363	     11.064895	    -37.902886	    308.127869	    479.172028	      0.064833	      0.149352	      0.086070	      0.076251	      0.081584	      0.071284	      0.038023	      0.138941	      0.021644	      0.141739	      0.021665	      0.076799
      0.897696	     11.052198	    -38.265307	    308.287718	    479.810758	      0.065013	      0.149281	      0.086087	      0.076187	      0.081579	      0.071220	      0.037940	      0.139004	      0.021637	      0.141797	      0.021658	      0.076862
      0.898029	     11.039381	    -38.630379	    308.447781	    480.458767	      0.065182	      0.149210	      0.086102	      0.076122	      0.081575	      0.071156	      0.037856	      0.139067	      0.021630	      0.141854	      0.021650	      0.076905
